<svg width="512" height="512" viewBox="0 0 512 512" fill="none" xmlns="http://www.w3.org/2000/svg">
<rect width="512" height="512" rx="256" fill="#111111"/>
<path d="M153.615 286.433C149.545 263.944 147.504 252.699 153.289 245.08C153.68 244.573 154.092 244.085 154.526 243.615C160.963 236.538 172.359 236.538 195.141 236.538H321.349C344.142 236.538 355.539 236.538 361.964 243.615C362.398 244.085 362.807 244.577 363.191 245.091C368.987 252.699 366.946 263.944 362.865 286.433C357.004 318.756 354.074 334.917 343.024 344.848C342.272 345.535 341.494 346.187 340.691 346.802C328.969 355.93 312.579 355.93 279.823 355.93H236.668C203.9 355.93 187.522 355.93 175.8 346.802C174.999 346.178 174.221 345.526 173.466 344.848C162.417 334.917 159.487 318.756 153.626 286.433M215.047 183.474H299.566C313.773 183.474 331.574 181.433 340.702 194.729C345.076 201.122 345.076 218.749 345.076 236.538M258.386 183.474L250.105 167.334C247.196 161.668 244.472 154.809 238.524 151.705C234.693 149.708 230.058 149.708 220.811 149.708C199.103 149.708 188.249 149.708 180.999 155.623C168.875 165.532 171.697 185.851 171.697 199.646V236.538" stroke="white" stroke-width="16.2807" stroke-linecap="round" stroke-linejoin="round"/>
<path d="M150.911 286.895C146.84 264.406 144.8 253.161 150.585 245.542C150.976 245.035 151.388 244.547 151.822 244.077C158.259 237 169.655 237 192.437 237H318.645C341.438 237 352.835 237 359.26 244.077C359.694 244.547 360.103 245.039 360.487 245.553C366.283 253.161 364.242 264.406 360.161 286.895C354.3 319.218 351.369 335.379 340.32 345.31C339.568 345.997 338.79 346.649 337.987 347.264C326.265 356.392 309.875 356.392 277.119 356.392H233.964C201.196 356.392 184.818 356.392 173.096 347.264C172.295 346.64 171.517 345.988 170.762 345.31C159.713 335.379 156.782 319.218 150.921 286.895" fill="white"/>
<path d="M150.911 286.895C146.84 264.406 144.8 253.161 150.585 245.542C150.976 245.035 151.388 244.547 151.822 244.077C158.259 237 169.655 237 192.437 237H318.645C341.438 237 352.835 237 359.26 244.077C359.694 244.547 360.103 245.039 360.487 245.553C366.283 253.161 364.242 264.406 360.161 286.895C354.3 319.218 351.369 335.379 340.32 345.31C339.568 345.997 338.79 346.649 337.987 347.264C326.265 356.392 309.875 356.392 277.119 356.392H233.964C201.196 356.392 184.818 356.392 173.096 347.264C172.295 346.64 171.517 345.988 170.762 345.31C159.713 335.379 156.782 319.218 150.921 286.895" stroke="white" stroke-width="16.2807" stroke-linecap="round" stroke-linejoin="round"/>
</svg>
